<?xml version="1.0" encoding="UTF-8" standalone="no"?>
<!-- Created with Inkscape (http://www.inkscape.org/) -->

<svg
   width="210mm"
   height="297mm"
   viewBox="0 0 210 297"
   version="1.1"
   id="svg5"
   xml:space="preserve"
   inkscape:version="1.2.2 (b0a8486541, 2022-12-01)"
   sodipodi:docname="desenho-1.svg"
   xmlns:inkscape="http://www.inkscape.org/namespaces/inkscape"
   xmlns:sodipodi="http://sodipodi.sourceforge.net/DTD/sodipodi-0.dtd"
   xmlns:xlink="http://www.w3.org/1999/xlink"
   xmlns="http://www.w3.org/2000/svg"
   xmlns:svg="http://www.w3.org/2000/svg"><sodipodi:namedview
     id="namedview7"
     pagecolor="#505050"
     bordercolor="#eeeeee"
     borderopacity="1"
     inkscape:showpageshadow="0"
     inkscape:pageopacity="0"
     inkscape:pagecheckerboard="0"
     inkscape:deskcolor="#505050"
     inkscape:document-units="mm"
     showgrid="false"
     inkscape:zoom="0.78992992"
     inkscape:cx="1178.5856"
     inkscape:cy="963.3766"
     inkscape:window-width="1600"
     inkscape:window-height="809"
     inkscape:window-x="0"
     inkscape:window-y="30"
     inkscape:window-maximized="1"
     inkscape:current-layer="layer1"
     showguides="true"><sodipodi:guide
       position="281.35406,57.765308"
       orientation="0,-1"
       id="guide1140"
       inkscape:locked="false" /></sodipodi:namedview><defs
     id="defs2"><linearGradient
       inkscape:collect="always"
       id="linearGradient1899"><stop
         style="stop-color:#35087e;stop-opacity:1;"
         offset="0"
         id="stop1895" /><stop
         style="stop-color:#35087e;stop-opacity:0;"
         offset="1"
         id="stop1897" /></linearGradient><linearGradient
       inkscape:collect="always"
       id="linearGradient1674"><stop
         style="stop-color:#450ba5;stop-opacity:1;"
         offset="0"
         id="stop1670" /><stop
         style="stop-color:#450ba5;stop-opacity:0;"
         offset="1"
         id="stop1672" /></linearGradient><clipPath
       clipPathUnits="userSpaceOnUse"
       id="clipPath256"><rect
         style="fill:#450ba5;stroke-width:0.264583"
         id="rect258"
         width="29.300507"
         height="37.973904"
         x="33.573788"
         y="163.00453"
         ry="8.3733282" /></clipPath><clipPath
       clipPathUnits="userSpaceOnUse"
       id="clipPath267"><rect
         style="fill:#450ba5;stroke-width:0.247021"
         id="rect269"
         width="27.596241"
         height="35.144573"
         x="87.228416"
         y="166.89581"
         ry="7.749455" /></clipPath><linearGradient
       inkscape:collect="always"
       xlink:href="#linearGradient1674"
       id="linearGradient1676"
       x1="461.4668"
       y1="279.82904"
       x2="425.34631"
       y2="250.35649"
       gradientUnits="userSpaceOnUse"
       gradientTransform="translate(0,0.25019914)" /><linearGradient
       inkscape:collect="always"
       xlink:href="#linearGradient1674"
       id="linearGradient1744"
       gradientUnits="userSpaceOnUse"
       x1="370.02826"
       y1="204.94885"
       x2="412.91928"
       y2="211.52202"
       gradientTransform="translate(0,-0.20927729)" /><linearGradient
       inkscape:collect="always"
       xlink:href="#linearGradient1899"
       id="linearGradient1901"
       x1="376.18332"
       y1="293.42432"
       x2="316.79773"
       y2="224.9097"
       gradientUnits="userSpaceOnUse" /><linearGradient
       inkscape:collect="always"
       xlink:href="#linearGradient1899"
       id="linearGradient1905"
       gradientUnits="userSpaceOnUse"
       x1="170.35065"
       y1="189.96239"
       x2="273.20233"
       y2="217.88187" /></defs><g
     inkscape:label="Camada 1"
     inkscape:groupmode="layer"
     id="layer1"><rect
       style="fill:#6610f2;stroke-width:0.26146"
       id="rect1583"
       width="71.185234"
       height="72.492699"
       x="385.78476"
       y="203.36182"
       ry="8.3733282" /><rect
       style="fill:url(#linearGradient1676);fill-opacity:1;stroke-width:0.26146"
       id="rect1608"
       width="71.185234"
       height="72.492699"
       x="385.78476"
       y="203.61201"
       ry="8.3733282" /><rect
       style="fill:url(#linearGradient1744);fill-opacity:1;stroke-width:0.26146"
       id="rect1742"
       width="71.185234"
       height="72.492699"
       x="385.78476"
       y="203.15254"
       ry="8.3733282" /><path
       style="fill:none;fill-opacity:1;stroke:#7e36f4;stroke-width:0.276846"
       d="m 419.17977,268.76065 c -1.62853,-1.23859 -2.28795,-1.56648 -3.1503,-1.56648 -0.56625,0 -1.22871,-0.15418 -1.1293,-0.96895 0.0587,-0.48123 -0.48776,-1.33702 -0.68647,-1.33702 -0.19873,0 -1.07442,0.17994 -1.84858,-0.05 -1.76226,-0.52332 -3.95035,-2.43706 -4.83106,-4.22531 -2.6058,-9.57007 -3.55836,-31.38755 3.8979,-38.63484 -1.36296,3.05605 -0.44677,18.33824 5.39519,15.57711 1.36137,-1.61791 0.42023,-4.70924 -1.18833,-8.75781 -3.52529,-7.46991 3.5274,-14.87123 4.7037,-16.4125 -0.32911,3.80021 -3.30876,11.605 0.48499,14.28784 1.23288,0.84093 2.82342,0.79839 4.21423,-0.37191 6.35435,-7.87601 2.66226,-13.36363 0.42598,-18.05616 10.88267,3.73931 6.85197,16.07074 4.56774,23.04176 -1.08791,7.63603 -1.09014,8.0352 -0.0505,9.07479 5.15229,2.59367 4.48151,-7.06183 2.12207,-9.7996 7.85851,4.76356 8.47972,18.47797 4.21253,30.26499 -0.63858,1.43825 -2.93115,3.74013 -4.41192,3.86937 -2.3666,0.20655 -3.23013,0.22494 -3.35371,1.78982 -0.0519,0.65803 -1.11276,1.01814 -1.55793,1.1159 -0.44519,0.0977 -1.28926,0.54095 -1.87572,0.98479 -1.1935,0.90332 -1.52537,0.97263 -2.31015,0.48254 -0.44574,-0.27838 -0.69081,-0.25333 -1.35399,0.13837 -0.44534,0.26308 -0.86601,0.47832 -0.93481,0.47832 -0.0689,0 -0.67251,-0.41631 -1.34155,-0.92516 z m 4.81142,-4.19357 c 0.10282,-0.86559 -0.64987,-2.57866 -1.23081,-2.8016 -0.68031,-0.26104 -1.76276,1.06571 -1.76276,2.16059 0,0.94634 0.52908,1.66197 0.96405,0.80771 0.63393,-1.245 0.92007,-0.93753 1.1415,0.30596 0.12492,0.7018 0.78652,0.38284 0.88802,-0.47266 z m -7.957,-1.09619 c 2.1465,-0.89686 4.37175,-3.29877 4.73394,-5.10979 0.14632,-0.73158 -0.0248,-1.0306 -1.43421,-2.50838 -4.48073,-3.2185 -11.50536,-4.21652 -10.53548,1.84782 0.32202,2.74006 1.48121,4.56026 3.55919,5.58883 1.38269,0.68442 2.35774,0.73256 3.67656,0.18152 z m 16.71111,-1.89747 c 5.2807,-3.94557 4.60889,-16.37528 -1.0289,-16.05798 -1.17657,-0.13725 -1.81263,-0.31922 -4.23338,1.08996 -3.8916,2.26538 -4.85794,10.45972 -4.20416,12.03208 0.36826,0.88564 1.91027,3.18701 2.95078,3.96222 1.97163,1.46893 4.64044,0.29565 6.51566,-1.02628 z"
       id="path1606"
       sodipodi:nodetypes="sssssccccccccccccsssssssssssssssssccssccsssc" /><path
       style="fill:#ffffff;fill-opacity:1;stroke-width:0.197676"
       d="m 419.26332,260.97968 c -1.16281,-0.88438 -1.63365,-1.1185 -2.24939,-1.1185 -0.40432,0 -0.87733,-0.11009 -0.80635,-0.69186 0.0419,-0.34361 -0.34827,-0.95467 -0.49016,-0.95467 -0.1419,0 -0.76716,0.12848 -1.31994,-0.0357 -1.25829,-0.37366 -2.82064,-1.74011 -3.44949,-3.01697 -1.86061,-6.83328 -2.54076,-22.41151 2.7832,-27.58626 -0.97319,2.1821 -0.31901,13.09396 3.8523,11.12245 0.97205,-1.15522 0.30006,-3.36251 -0.8485,-6.2533 -2.51714,-5.3337 2.51866,-10.61843 3.35856,-11.71893 -0.23499,2.71343 -2.36253,8.28626 0.3463,10.20187 0.88031,0.60045 2.01599,0.57008 3.00907,-0.26555 4.53717,-5.62367 1.90092,-9.54197 0.30416,-12.89256 7.7705,2.66997 4.89247,11.47492 3.26148,16.45241 -0.7768,5.45232 -0.77839,5.73733 -0.036,6.47963 3.67886,1.85195 3.19991,-5.04233 1.51521,-6.99716 5.61118,3.4013 6.05474,13.19373 3.00786,21.60997 -0.45597,1.02694 -2.09292,2.67054 -3.15023,2.76282 -1.68982,0.14749 -2.30639,0.16061 -2.39463,1.27798 -0.0371,0.46985 -0.79454,0.72697 -1.11241,0.79678 -0.31787,0.0698 -0.92056,0.38625 -1.3393,0.70317 -0.85219,0.64499 -1.08916,0.69448 -1.64951,0.34454 -0.31828,-0.19877 -0.49326,-0.18088 -0.96679,0.0988 -0.31798,0.18784 -0.61835,0.34153 -0.66748,0.34153 -0.0492,0 -0.48019,-0.29726 -0.95789,-0.66059 z m 3.43548,-2.99431 c 0.0734,-0.61806 -0.46403,-1.84123 -0.87883,-2.00041 -0.48576,-0.1864 -1.25865,0.76094 -1.25865,1.54271 0,0.67571 0.37777,1.18669 0.68835,0.57672 0.45264,-0.88896 0.65695,-0.66941 0.81506,0.21847 0.0892,0.5011 0.56159,0.27335 0.63407,-0.33749 z m -5.6815,-0.78271 c 1.53265,-0.64038 3.12154,-2.35541 3.38015,-3.64852 0.10448,-0.52237 -0.0177,-0.73587 -1.02406,-1.79105 -3.19936,-2.29809 -8.21512,-3.0107 -7.52261,1.31939 0.22994,1.95647 1.05763,3.25615 2.54136,3.99057 0.98727,0.4887 1.68349,0.52307 2.62516,0.12961 z m 11.93216,-1.35484 c 3.77055,-2.81724 3.29086,-11.69237 -0.73467,-11.46581 -0.8401,-0.098 -1.29426,-0.22793 -3.02274,0.77826 -2.7787,1.61754 -3.46869,7.46851 -3.00187,8.59121 0.26294,0.63237 1.36398,2.27561 2.10693,2.82913 1.40779,1.04885 3.31339,0.2111 4.65235,-0.73279 z"
       id="path1585"
       sodipodi:nodetypes="sssssccccccccccccsssssssssssssssssccssccsssc" /><path
       style="fill:#000000;stroke-width:0.264583"
       id="path301"
       d="" /><path
       style="fill:#000000;stroke-width:0.264583"
       id="path299"
       d="" /><text
       xml:space="preserve"
       style="font-style:italic;font-variant:normal;font-weight:bold;font-stretch:normal;font-size:15.6377px;font-family:sans-serif;-inkscape-font-specification:'sans-serif Bold Italic';letter-spacing:-1.0906px;fill:#ffffff;fill-opacity:1;stroke-width:1.30314"
       x="237.27843"
       y="79.202759"
       id="text1589"><tspan
         sodipodi:role="line"
         id="tspan1587"
         style="font-style:italic;font-variant:normal;font-weight:normal;font-stretch:normal;font-family:'URW Gothic';-inkscape-font-specification:'URW Gothic Italic';fill:#ffffff;fill-opacity:1;stroke-width:1.30314"
         x="237.27843"
         y="79.202759">GAME</tspan></text><path
       id="path1591"
       style="font-style:italic;font-variant:normal;font-weight:bold;font-stretch:normal;font-size:29.501px;font-family:sans-serif;-inkscape-font-specification:'sans-serif Bold Italic';letter-spacing:-5.40587px;fill:#ffffff;fill-opacity:1;stroke-width:5.71986"
       d="m 310.26575,51.20919 c 0,0 -10.3652,17.21547 -20.32278,32.65885 -38.62716,-0.84466 -26.52213,-0.86947 -38.82825,-0.89811 h -13.57313 l -9.7533,50.03859 h 13.60798 c 8.08826,0 14.07629,-0.5136 17.96403,-1.54138 3.91005,-1.0278 7.33903,-2.75985 10.28833,-5.19527 0.1645,-0.13285 0.31892,-0.27413 0.47974,-0.41 -1.98189,3.65661 -3.97281,7.33013 -5.94313,10.96525 l 43.71915,-0.12494 -8.9165,-17.55764 -12.36836,-0.13936 9.69078,-17.87866 9.77012,-17.57206 -1.83354,35.6503 c 6.43594,17.58604 -0.11866,-0.20731 6.3519,17.49511 l 9.0752,-0.0312 -0.40277,-3.6599 h 11.09268 l 3.72001,-18.9367 h 4.12281 c 2.05557,0 3.61901,0.46951 4.69148,1.40792 1.09483,0.91607 2.02253,2.61418 2.78219,5.09427 l 3.75368,12.43451 h 12.83608 8.36941 l 4.05547,-20.87967 16.8242,20.87967 h 15.14818 L 385.0507,107.26929 413.7395,82.97018 h -15.58459 l -21.28125,17.9977 3.51801,-17.9977 h -12.90221 l -7.96543,40.86842 -1.51014,-5.04017 c -0.87137,-2.92696 -1.88844,-5.09458 -3.0503,-6.5022 -1.16184,-1.42996 -2.61328,-2.3237 -4.35605,-2.68119 3.82071,-0.37985 6.84808,-1.87656 9.0824,-4.49072 2.23433,-2.61415 3.35089,-5.94361 3.35089,-9.98775 0,-3.99945 -1.41865,-7.02681 -4.25623,-9.08241 -2.83761,-2.05557 -7.0042,-3.08398 -12.50063,-3.08398 h -33.49624 c 10.07751,79.52227 1.95148,8.8756 -2.52198,-31.76102 z m 28.07442,41.11246 h 5.32873 c 2.23431,0 3.86569,0.39028 4.89349,1.17229 1.05013,0.75967 1.57505,1.96681 1.57505,3.62022 0,2.63649 -0.75907,4.63548 -2.27842,5.99841 -1.49699,1.36295 -3.70871,2.04517 -6.63566,2.04517 h -5.42973 z m -89.73833,0.40158 h 4.52436 c 4.51335,0 7.90954,0.99444 10.18855,2.983 2.30136,1.98854 3.45189,4.92655 3.45189,8.81429 0,5.7422 -1.75351,10.30027 -5.2614,13.6741 -3.50789,3.37383 -8.26734,5.06061 -14.27766,5.06061 h -4.62538 z"
       sodipodi:nodetypes="cccccscccccccccccccccsccccccccccccccccccsssscccscscscccscssscc" /><text
       xml:space="preserve"
       style="font-style:italic;font-variant:normal;font-weight:bold;font-stretch:normal;font-size:9.4567px;font-family:sans-serif;-inkscape-font-specification:'sans-serif Bold Italic';letter-spacing:-0.659524px;fill:#ffffff;fill-opacity:1;stroke-width:0.788055"
       x="225.19919"
       y="148.30934"
       id="text1595"><tspan
         sodipodi:role="line"
         id="tspan1593"
         style="font-style:italic;font-variant:normal;font-weight:normal;font-stretch:normal;font-family:'URW Gothic';-inkscape-font-specification:'URW Gothic Italic';fill:#ffffff;fill-opacity:1;stroke-width:0.788055"
         x="225.19919"
         y="148.30934">Console, Jogos, Desbloqueio &amp; Manutenção.</tspan></text><g
       id="g331"
       inkscape:export-filename="logo3.png"
       inkscape:export-xdpi="300"
       inkscape:export-ydpi="300"><rect
         style="fill:#6610f2;stroke-width:0.374189"
         id="rect809"
         width="145.80133"
         height="72.492699"
         x="222.67404"
         y="203.36182"
         ry="8.3733282" /><rect
         style="fill:url(#linearGradient1901);fill-opacity:1;stroke-width:0.374189"
         id="rect1893"
         width="145.80133"
         height="72.492699"
         x="222.67404"
         y="203.36182"
         ry="8.3733282" /><rect
         style="fill:url(#linearGradient1905);fill-opacity:1;stroke-width:0.374189"
         id="rect1903"
         width="145.80133"
         height="72.492699"
         x="222.67404"
         y="203.36182"
         ry="8.3733282" /><path
         style="fill:none;fill-opacity:1;stroke:#7e36f4;stroke-width:0.253436"
         d="m 256.13687,264.4354 c -1.49082,-1.13385 -2.09448,-1.43401 -2.88391,-1.43401 -0.51837,0 -1.12482,-0.14115 -1.03381,-0.88702 0.0537,-0.44054 -0.44652,-1.22396 -0.62842,-1.22396 -0.18193,0 -0.98357,0.16472 -1.69227,-0.0458 -1.61324,-0.47906 -3.61631,-2.23098 -4.42255,-3.86802 -2.38545,-8.76083 -3.25747,-28.73344 3.5683,-35.3679 -1.24771,2.79763 -0.40899,16.78757 4.93897,14.25992 1.24626,-1.4811 0.3847,-4.31103 -1.08784,-8.01726 -3.2272,-6.83826 3.22912,-13.61373 4.30596,-15.02467 -0.30128,3.47887 -3.02898,10.62369 0.44398,13.07967 1.12863,0.76983 2.58467,0.73088 3.85787,-0.34046 5.81703,-7.21002 2.43715,-12.23361 0.38996,-16.52934 9.96244,3.42312 6.27258,14.71181 4.1815,21.09336 -0.99592,6.99034 -0.99796,7.35575 -0.0462,8.30744 4.71661,2.37435 4.10256,-6.46469 1.94263,-8.97096 7.194,4.36076 7.76268,16.91549 3.85632,27.70581 -0.58458,1.31663 -2.68329,3.42386 -4.03885,3.54217 -2.16648,0.18909 -2.95699,0.20592 -3.07012,1.63848 -0.0475,0.60239 -1.01867,0.93205 -1.4262,1.02154 -0.40754,0.0894 -1.18024,0.49521 -1.71711,0.90152 -1.09258,0.82693 -1.39638,0.89038 -2.1148,0.44173 -0.40805,-0.25484 -0.6324,-0.23191 -1.2395,0.12667 -0.40768,0.24084 -0.79278,0.43788 -0.85576,0.43788 -0.0631,0 -0.61565,-0.38111 -1.22811,-0.84693 z m 4.40457,-3.83896 c 0.0941,-0.7924 -0.59492,-2.36061 -1.12674,-2.5647 -0.62278,-0.23897 -1.6137,0.9756 -1.6137,1.97789 0,0.86632 0.48434,1.52144 0.88253,0.73941 0.58033,-1.13972 0.84227,-0.85825 1.04498,0.28009 0.11436,0.64246 0.72001,0.35047 0.81293,-0.43269 z m -7.28416,-1.0035 c 1.96499,-0.82102 4.00207,-3.01983 4.33364,-4.67771 0.13395,-0.66971 -0.0227,-0.94345 -1.31294,-2.29627 -4.10184,-2.94635 -10.53247,-3.85997 -9.6446,1.69157 0.29479,2.50836 1.35596,4.17465 3.25822,5.11624 1.26577,0.62655 2.15837,0.67062 3.36568,0.16617 z m 15.29803,-1.73702 c 4.83416,-3.61193 4.21916,-14.9906 -0.9419,-14.70013 -1.07708,-0.12564 -1.65936,-0.29222 -3.87541,0.9978 -3.56253,2.07382 -4.44715,9.57525 -3.84866,11.01465 0.33712,0.81075 1.74874,2.91752 2.70127,3.62718 1.80491,1.34472 4.24804,0.27065 5.9647,-0.9395 z"
         id="path1859"
         sodipodi:nodetypes="sssssccccccccccccsssssssssssssssssccssccsssc" /><path
         style="fill:#ffffff;fill-opacity:1;stroke-width:0.180961"
         d="m 257.09748,257.9309 c -1.06449,-0.8096 -1.49551,-1.02392 -2.05919,-1.02392 -0.37013,0 -0.80314,-0.10078 -0.73816,-0.63336 0.0384,-0.31456 -0.31882,-0.87394 -0.44871,-0.87394 -0.12991,0 -0.70229,0.11761 -1.20833,-0.0327 -1.15189,-0.34206 -2.58213,-1.59296 -3.1578,-2.76185 -1.70328,-6.25547 -2.32592,-20.51641 2.54785,-25.25359 -0.8909,1.99759 -0.29203,11.98675 3.52655,10.18195 0.88986,-1.05754 0.27469,-3.07818 -0.77675,-5.72453 -2.30429,-4.88269 2.30568,-9.72054 3.07456,-10.72798 -0.21512,2.48398 -2.16275,7.58557 0.31702,9.3392 0.80587,0.54968 1.84552,0.52188 2.75463,-0.24309 4.15351,-5.14814 1.74017,-8.73511 0.27844,-11.80238 7.11343,2.4442 4.47876,10.50461 2.98569,15.06121 -0.71112,4.99127 -0.71257,5.25218 -0.033,5.93172 3.36778,1.69535 2.92933,-4.61596 1.38709,-6.40549 5.1367,3.11369 5.54275,12.07808 2.75351,19.78265 -0.41741,0.9401 -1.91594,2.44472 -2.88384,2.52919 -1.54693,0.13502 -2.11137,0.14703 -2.19215,1.16992 -0.034,0.43012 -0.72735,0.6655 -1.01834,0.7294 -0.29099,0.0639 -0.84272,0.35359 -1.22605,0.64371 -0.78013,0.59045 -0.99706,0.63576 -1.51003,0.31541 -0.29137,-0.18196 -0.45155,-0.16558 -0.88504,0.0905 -0.29109,0.17195 -0.56606,0.31265 -0.61104,0.31265 -0.045,0 -0.43958,-0.27213 -0.87689,-0.60473 z m 3.14498,-2.74112 c 0.0672,-0.56579 -0.4248,-1.68553 -0.80452,-1.83125 -0.44469,-0.17064 -1.15222,0.69659 -1.15222,1.41226 0,0.61857 0.34582,1.08634 0.63014,0.52795 0.41437,-0.81379 0.6014,-0.61281 0.74614,0.2 0.0817,0.45872 0.5141,0.25023 0.58046,-0.30896 z m -5.20108,-0.71652 c 1.40305,-0.58623 2.85758,-2.15624 3.09433,-3.34 0.0956,-0.4782 -0.0162,-0.67365 -0.93747,-1.6396 -2.92882,-2.10377 -7.52046,-2.75612 -6.8865,1.20782 0.21049,1.79103 0.96819,2.98081 2.32646,3.65313 0.90379,0.44737 1.54114,0.47884 2.40318,0.11865 z m 10.92318,-1.24028 c 3.45172,-2.57901 3.01259,-10.70367 -0.67254,-10.49627 -0.76906,-0.0897 -1.18482,-0.20865 -2.76714,0.71245 -2.54374,1.48077 -3.17538,6.83698 -2.74804,7.86475 0.24071,0.5789 1.24865,2.08318 1.92877,2.5899 1.28875,0.96016 3.03322,0.19325 4.25895,-0.67083 z"
         id="path811"
         sodipodi:nodetypes="sssssccccccccccccsssssssssssssssssccssccsssc" /><text
         xml:space="preserve"
         style="font-style:italic;font-variant:normal;font-weight:bold;font-stretch:normal;font-size:6.1528px;font-family:sans-serif;-inkscape-font-specification:'sans-serif Bold Italic';letter-spacing:-0.429105px;fill:#ffffff;fill-opacity:1;stroke-width:0.512732"
         x="275.62875"
         y="233.07997"
         id="text925"><tspan
           sodipodi:role="line"
           id="tspan923"
           style="font-style:italic;font-variant:normal;font-weight:normal;font-stretch:normal;font-family:'URW Gothic';-inkscape-font-specification:'URW Gothic Italic';fill:#ffffff;fill-opacity:1;stroke-width:0.512732"
           x="275.62875"
           y="233.07997">GAME</tspan></text><path
         id="text871"
         style="font-style:italic;font-variant:normal;font-weight:bold;font-stretch:normal;font-size:29.501px;font-family:sans-serif;-inkscape-font-specification:'sans-serif Bold Italic';letter-spacing:-5.40587px;fill:#ffffff;fill-opacity:1;stroke-width:2.25053"
         d="m 304.34622,222.06566 c 0,0 -4.07828,6.77358 -7.99618,12.8499 -15.19818,-0.33234 -10.43535,-0.3421 -15.2773,-0.35337 h -5.34046 l -3.83752,19.68811 h 5.35418 c 3.18239,0 5.53843,-0.20208 7.06809,-0.60647 1.53845,-0.40439 2.88761,-1.08588 4.04804,-2.04412 0.0647,-0.0523 0.12548,-0.10786 0.18875,-0.16132 -0.77979,1.43872 -1.56313,2.8841 -2.33837,4.31437 l 17.20167,-0.0492 -3.50827,-6.9082 -4.86644,-0.0548 3.81292,-7.03451 3.84414,-6.91388 -0.72142,14.02691 c 2.53227,6.91938 -0.0467,-0.0816 2.4992,6.88361 l 3.57072,-0.0123 -0.15847,-1.44002 h 4.36451 l 1.46367,-7.45081 h 1.62215 c 0.80878,0 1.42393,0.18474 1.8459,0.55397 0.43077,0.36043 0.79578,1.02857 1.09468,2.00438 l 1.47691,4.89246 h 5.05047 3.29302 l 1.59565,-8.21528 6.61963,8.21528 h 5.96018 l -8.50528,-10.12742 11.28785,-9.56069 h -6.13189 l -8.37329,7.08135 1.3842,-7.08135 h -5.07649 l -3.13406,16.08003 -0.59418,-1.9831 c -0.34285,-1.15163 -0.74303,-2.0045 -1.20017,-2.55834 -0.45713,-0.56263 -1.02821,-0.91428 -1.71393,-1.05494 1.5033,-0.14945 2.69444,-0.73835 3.57356,-1.76691 0.87911,-1.02856 1.31843,-2.33857 1.31843,-3.92977 0,-1.57361 -0.55818,-2.76476 -1.67465,-3.57355 -1.11648,-0.80878 -2.75586,-1.21342 -4.91848,-1.21342 h -13.17938 c 3.96508,31.28871 0.76783,3.49218 -0.99229,-12.49664 z m 11.04612,16.17605 h 2.09663 c 0.87911,0 1.52099,0.15355 1.92538,0.46124 0.41319,0.2989 0.61972,0.77386 0.61972,1.42441 0,1.03735 -0.29866,1.82387 -0.89646,2.36013 -0.58901,0.53626 -1.45923,0.80469 -2.61086,0.80469 h -2.13637 z m -35.30831,0.158 h 1.78015 c 1.77581,0 3.11207,0.39127 4.00877,1.17369 0.90549,0.78241 1.35817,1.93839 1.35817,3.46806 0,2.25931 -0.68993,4.05272 -2.07014,5.38019 -1.38021,1.32746 -3.25285,1.99113 -5.61767,1.99113 h -1.81989 z"
         sodipodi:nodetypes="cccccscccccccccccccccsccccccccccccccccccsssscccscscscccscssscc" /></g></g></svg>
